%TF.GenerationSoftware,KiCad,Pcbnew,10.0.0*%
%TF.CreationDate,2026-04-20T15:50:08+08:00*%
%TF.ProjectId,panel-74pad-70pin-mezzanine,70616e65-6c2d-4373-9470-61642d373070,rev?*%
%TF.SameCoordinates,Original*%
%TF.FileFunction,Drillmap*%
%TF.FilePolarity,Positive*%
%FSLAX45Y45*%
G04 Gerber Fmt 4.5, Leading zero omitted, Abs format (unit mm)*
G04 Created by KiCad (PCBNEW 10.0.0) date 2026-04-20 15:50:08*
%MOMM*%
%LPD*%
G01*
G04 APERTURE LIST*
%ADD10C,0.050000*%
%ADD11C,0.200000*%
G04 APERTURE END LIST*
D10*
X4200000Y-4800000D02*
X5600000Y-4800000D01*
X5600000Y-6400000D01*
X4200000Y-6400000D01*
X4200000Y-4800000D01*
X2800000Y-4800000D02*
X4200000Y-4800000D01*
X4200000Y-6400000D01*
X2800000Y-6400000D01*
X2800000Y-4800000D01*
X1400000Y-4800000D02*
X2800000Y-4800000D01*
X2800000Y-6400000D01*
X1400000Y-6400000D01*
X1400000Y-4800000D01*
X0Y-4800000D02*
X1400000Y-4800000D01*
X1400000Y-6400000D01*
X0Y-6400000D01*
X0Y-4800000D01*
X5600000Y-3200000D02*
X7000000Y-3200000D01*
X7000000Y-4800000D01*
X5600000Y-4800000D01*
X5600000Y-3200000D01*
X4200000Y-3200000D02*
X5600000Y-3200000D01*
X5600000Y-4800000D01*
X4200000Y-4800000D01*
X4200000Y-3200000D01*
X2800000Y-3200000D02*
X4200000Y-3200000D01*
X4200000Y-4800000D01*
X2800000Y-4800000D01*
X2800000Y-3200000D01*
X1400000Y-3200000D02*
X2800000Y-3200000D01*
X2800000Y-4800000D01*
X1400000Y-4800000D01*
X1400000Y-3200000D01*
X0Y-3200000D02*
X1400000Y-3200000D01*
X1400000Y-4800000D01*
X0Y-4800000D01*
X0Y-3200000D01*
X5600000Y-1600000D02*
X7000000Y-1600000D01*
X7000000Y-3200000D01*
X5600000Y-3200000D01*
X5600000Y-1600000D01*
X4200000Y-1600000D02*
X5600000Y-1600000D01*
X5600000Y-3200000D01*
X4200000Y-3200000D01*
X4200000Y-1600000D01*
X2800000Y-1600000D02*
X4200000Y-1600000D01*
X4200000Y-3200000D01*
X2800000Y-3200000D01*
X2800000Y-1600000D01*
X1400000Y-1600000D02*
X2800000Y-1600000D01*
X2800000Y-3200000D01*
X1400000Y-3200000D01*
X1400000Y-1600000D01*
X0Y-1600000D02*
X1400000Y-1600000D01*
X1400000Y-3200000D01*
X0Y-3200000D01*
X0Y-1600000D01*
X5600000Y0D02*
X7000000Y0D01*
X7000000Y-1600000D01*
X5600000Y-1600000D01*
X5600000Y0D01*
X4200000Y0D02*
X5600000Y0D01*
X5600000Y-1600000D01*
X4200000Y-1600000D01*
X4200000Y0D01*
X2800000Y0D02*
X4200000Y0D01*
X4200000Y-1600000D01*
X2800000Y-1600000D01*
X2800000Y0D01*
X1400000Y0D02*
X2800000Y0D01*
X2800000Y-1600000D01*
X1400000Y-1600000D01*
X1400000Y0D01*
X0Y0D02*
X1400000Y0D01*
X1400000Y-1600000D01*
X0Y-1600000D01*
X0Y0D01*
X-350000Y600000D02*
X7350000Y600000D01*
X7350000Y-7100000D01*
X-350000Y-7100000D01*
X-350000Y600000D01*
X5600000Y-4800000D02*
X7000000Y-4800000D01*
X7000000Y-6400000D01*
X5600000Y-6400000D01*
X5600000Y-4800000D01*
D11*
X-91723Y-7413984D02*
X-91723Y-7213984D01*
X-91723Y-7213984D02*
X-44104Y-7213984D01*
X-44104Y-7213984D02*
X-15533Y-7223508D01*
X-15533Y-7223508D02*
X3515Y-7242555D01*
X3515Y-7242555D02*
X13039Y-7261603D01*
X13039Y-7261603D02*
X22562Y-7299698D01*
X22562Y-7299698D02*
X22562Y-7328269D01*
X22562Y-7328269D02*
X13039Y-7366365D01*
X13039Y-7366365D02*
X3515Y-7385412D01*
X3515Y-7385412D02*
X-15533Y-7404460D01*
X-15533Y-7404460D02*
X-44104Y-7413984D01*
X-44104Y-7413984D02*
X-91723Y-7413984D01*
X108277Y-7413984D02*
X108277Y-7280650D01*
X108277Y-7318746D02*
X117801Y-7299698D01*
X117801Y-7299698D02*
X127324Y-7290174D01*
X127324Y-7290174D02*
X146372Y-7280650D01*
X146372Y-7280650D02*
X165420Y-7280650D01*
X232086Y-7413984D02*
X232086Y-7280650D01*
X232086Y-7213984D02*
X222562Y-7223508D01*
X222562Y-7223508D02*
X232086Y-7233031D01*
X232086Y-7233031D02*
X241610Y-7223508D01*
X241610Y-7223508D02*
X232086Y-7213984D01*
X232086Y-7213984D02*
X232086Y-7233031D01*
X355896Y-7413984D02*
X336848Y-7404460D01*
X336848Y-7404460D02*
X327324Y-7385412D01*
X327324Y-7385412D02*
X327324Y-7213984D01*
X460658Y-7413984D02*
X441610Y-7404460D01*
X441610Y-7404460D02*
X432086Y-7385412D01*
X432086Y-7385412D02*
X432086Y-7213984D01*
X689229Y-7413984D02*
X689229Y-7213984D01*
X689229Y-7213984D02*
X755896Y-7356841D01*
X755896Y-7356841D02*
X822562Y-7213984D01*
X822562Y-7213984D02*
X822562Y-7413984D01*
X1003515Y-7413984D02*
X1003515Y-7309222D01*
X1003515Y-7309222D02*
X993991Y-7290174D01*
X993991Y-7290174D02*
X974943Y-7280650D01*
X974943Y-7280650D02*
X936848Y-7280650D01*
X936848Y-7280650D02*
X917801Y-7290174D01*
X1003515Y-7404460D02*
X984467Y-7413984D01*
X984467Y-7413984D02*
X936848Y-7413984D01*
X936848Y-7413984D02*
X917801Y-7404460D01*
X917801Y-7404460D02*
X908277Y-7385412D01*
X908277Y-7385412D02*
X908277Y-7366365D01*
X908277Y-7366365D02*
X917801Y-7347317D01*
X917801Y-7347317D02*
X936848Y-7337793D01*
X936848Y-7337793D02*
X984467Y-7337793D01*
X984467Y-7337793D02*
X1003515Y-7328269D01*
X1098753Y-7280650D02*
X1098753Y-7480650D01*
X1098753Y-7290174D02*
X1117801Y-7280650D01*
X1117801Y-7280650D02*
X1155896Y-7280650D01*
X1155896Y-7280650D02*
X1174944Y-7290174D01*
X1174944Y-7290174D02*
X1184467Y-7299698D01*
X1184467Y-7299698D02*
X1193991Y-7318746D01*
X1193991Y-7318746D02*
X1193991Y-7375888D01*
X1193991Y-7375888D02*
X1184467Y-7394936D01*
X1184467Y-7394936D02*
X1174944Y-7404460D01*
X1174944Y-7404460D02*
X1155896Y-7413984D01*
X1155896Y-7413984D02*
X1117801Y-7413984D01*
X1117801Y-7413984D02*
X1098753Y-7404460D01*
X1279705Y-7394936D02*
X1289229Y-7404460D01*
X1289229Y-7404460D02*
X1279705Y-7413984D01*
X1279705Y-7413984D02*
X1270182Y-7404460D01*
X1270182Y-7404460D02*
X1279705Y-7394936D01*
X1279705Y-7394936D02*
X1279705Y-7413984D01*
X1279705Y-7290174D02*
X1289229Y-7299698D01*
X1289229Y-7299698D02*
X1279705Y-7309222D01*
X1279705Y-7309222D02*
X1270182Y-7299698D01*
X1270182Y-7299698D02*
X1279705Y-7290174D01*
X1279705Y-7290174D02*
X1279705Y-7309222D01*
M02*
