M48
; DRILL file KiCad 10.0.0 date 2026-04-20T15:50:08
; FORMAT={-:-/ absolute / metric / decimal}
; #@! TF.CreationDate,2026-04-20T15:50:08+08:00
; #@! TF.GenerationSoftware,Kicad,Pcbnew,10.0.0
; #@! TF.FileFunction,Plated,1,4,PTH
FMAT,2
METRIC
; #@! TA.AperFunction,Plated,PTH,ViaDrill
T1C0.300
; #@! TA.AperFunction,Plated,PTH,ComponentDrill
T2C0.300
%
G90
G05
T1
X0.74Y-2.19
X0.74Y-9.01
X0.74Y-12.1
X0.74Y-18.19
X0.74Y-25.01
X0.74Y-28.1
X0.74Y-34.19
X0.74Y-41.01
X0.74Y-44.1
X0.74Y-50.19
X0.74Y-57.01
X0.74Y-60.1
X0.75Y-4.2
X0.75Y-10.28
X0.75Y-14.52
X0.75Y-20.2
X0.75Y-26.28
X0.75Y-30.52
X0.75Y-36.2
X0.75Y-42.28
X0.75Y-46.52
X0.75Y-52.2
X0.75Y-58.28
X0.75Y-62.52
X0.76Y-7.07
X0.76Y-12.69
X0.76Y-23.07
X0.76Y-28.69
X0.76Y-39.07
X0.76Y-44.69
X0.76Y-55.07
X0.76Y-60.69
X1.0Y-0.75
X1.0Y-9.75
X1.0Y-15.2
X1.0Y-16.75
X1.0Y-25.75
X1.0Y-31.2
X1.0Y-32.75
X1.0Y-41.75
X1.0Y-47.2
X1.0Y-48.75
X1.0Y-57.75
X1.0Y-63.2
X1.38Y-4.47
X1.38Y-20.47
X1.38Y-36.47
X1.38Y-52.47
X1.5Y-2.5
X1.5Y-18.5
X1.5Y-34.5
X1.5Y-50.5
X1.54Y-8.1
X1.54Y-24.1
X1.54Y-40.1
X1.54Y-56.1
X1.629Y-5.072
X1.629Y-21.072
X1.629Y-37.072
X1.629Y-53.072
X1.649Y-6.833
X1.649Y-22.833
X1.649Y-38.833
X1.649Y-54.833
X1.65Y-5.647
X1.65Y-21.647
X1.65Y-37.647
X1.65Y-53.647
X1.65Y-10.0
X1.65Y-26.0
X1.65Y-42.0
X1.65Y-58.0
X1.651Y-6.222
X1.651Y-22.222
X1.651Y-38.222
X1.651Y-54.222
X1.66Y-8.78
X1.66Y-24.78
X1.66Y-40.78
X1.66Y-56.78
X1.661Y-9.39
X1.661Y-25.39
X1.661Y-41.39
X1.661Y-57.39
X1.95Y-3.4
X1.95Y-12.9
X1.95Y-19.4
X1.95Y-28.9
X1.95Y-35.4
X1.95Y-44.9
X1.95Y-51.4
X1.95Y-60.9
X2.338Y-13.424
X2.338Y-29.424
X2.338Y-45.424
X2.338Y-61.424
X2.41Y-2.411
X2.41Y-18.411
X2.41Y-34.411
X2.41Y-50.411
X2.465Y-1.762
X2.465Y-17.762
X2.465Y-33.762
X2.465Y-49.762
X2.483Y-14.017
X2.483Y-30.017
X2.483Y-46.017
X2.483Y-62.017
X2.993Y-1.455
X2.993Y-17.455
X2.993Y-33.455
X2.993Y-49.455
X3.0Y-0.75
X3.0Y-16.75
X3.0Y-32.75
X3.0Y-48.75
X3.07Y-14.183
X3.07Y-30.183
X3.07Y-46.183
X3.07Y-62.183
X3.35Y-15.25
X3.35Y-31.25
X3.35Y-47.25
X3.35Y-63.25
X3.604Y-14.477
X3.604Y-30.477
X3.604Y-46.477
X3.604Y-62.477
X3.61Y-10.045
X3.61Y-26.045
X3.61Y-42.045
X3.61Y-58.045
X3.643Y-1.225
X3.643Y-17.225
X3.643Y-33.225
X3.643Y-49.225
X3.75Y-6.058
X3.75Y-6.928
X3.75Y-8.235
X3.75Y-9.157
X3.75Y-22.058
X3.75Y-22.928
X3.75Y-24.235
X3.75Y-25.157
X3.75Y-38.058
X3.75Y-38.928
X3.75Y-40.235
X3.75Y-41.157
X3.75Y-54.058
X3.75Y-54.928
X3.75Y-56.235
X3.75Y-57.157
X4.15Y-14.75
X4.15Y-30.75
X4.15Y-46.75
X4.15Y-62.75
X4.244Y-1.117
X4.244Y-17.117
X4.244Y-33.117
X4.244Y-49.117
X4.704Y-15.004
X4.704Y-31.004
X4.704Y-47.004
X4.704Y-63.004
X4.85Y-1.05
X4.85Y-17.05
X4.85Y-33.05
X4.85Y-49.05
X6.3Y-14.8
X6.3Y-30.8
X6.3Y-46.8
X6.3Y-62.8
X6.4Y-1.2
X6.4Y-17.2
X6.4Y-33.2
X6.4Y-49.2
X6.43Y-11.1
X6.43Y-27.1
X6.43Y-43.1
X6.43Y-59.1
X7.0Y-0.75
X7.0Y-2.1
X7.0Y-4.3
X7.0Y-5.64
X7.0Y-7.62
X7.0Y-8.85
X7.0Y-10.37
X7.0Y-13.85
X7.0Y-15.2
X7.0Y-16.75
X7.0Y-18.1
X7.0Y-20.3
X7.0Y-21.64
X7.0Y-23.62
X7.0Y-24.85
X7.0Y-26.37
X7.0Y-29.85
X7.0Y-31.2
X7.0Y-32.75
X7.0Y-34.1
X7.0Y-36.3
X7.0Y-37.64
X7.0Y-39.62
X7.0Y-40.85
X7.0Y-42.37
X7.0Y-45.85
X7.0Y-47.2
X7.0Y-48.75
X7.0Y-50.1
X7.0Y-52.3
X7.0Y-53.64
X7.0Y-55.62
X7.0Y-56.85
X7.0Y-58.37
X7.0Y-61.85
X7.0Y-63.2
X7.52Y-11.1
X7.52Y-27.1
X7.52Y-43.1
X7.52Y-59.1
X7.6Y-1.2
X7.6Y-17.2
X7.6Y-33.2
X7.6Y-49.2
X7.65Y-14.8
X7.65Y-30.8
X7.65Y-46.8
X7.65Y-62.8
X9.15Y-1.0
X9.15Y-17.0
X9.15Y-33.0
X9.15Y-49.0
X9.3Y-14.95
X9.3Y-30.95
X9.3Y-46.95
X9.3Y-62.95
X9.757Y-1.055
X9.757Y-17.055
X9.757Y-33.055
X9.757Y-49.055
X9.918Y-14.726
X9.918Y-30.726
X9.918Y-46.726
X9.918Y-62.726
X10.16Y-9.65
X10.16Y-25.65
X10.16Y-41.65
X10.16Y-57.65
X10.17Y-10.26
X10.17Y-26.26
X10.17Y-42.26
X10.17Y-58.26
X10.25Y-8.65
X10.25Y-24.65
X10.25Y-40.65
X10.25Y-56.65
X10.27Y-7.015
X10.27Y-23.015
X10.27Y-39.015
X10.27Y-55.015
X10.35Y-1.25
X10.35Y-17.25
X10.35Y-33.25
X10.35Y-49.25
X10.38Y-6.125
X10.38Y-22.125
X10.38Y-38.125
X10.38Y-54.125
X10.48Y-14.49
X10.48Y-30.49
X10.48Y-46.49
X10.48Y-62.49
X10.89Y-1.656
X10.89Y-17.656
X10.89Y-33.656
X10.89Y-49.656
X11.0Y-0.75
X11.0Y-15.25
X11.0Y-16.75
X11.0Y-31.25
X11.0Y-32.75
X11.0Y-47.25
X11.0Y-48.75
X11.0Y-63.25
X11.079Y-14.293
X11.079Y-30.293
X11.079Y-46.293
X11.079Y-62.293
X11.44Y-1.919
X11.44Y-17.919
X11.44Y-33.919
X11.44Y-49.919
X11.681Y-14.197
X11.681Y-30.197
X11.681Y-46.197
X11.681Y-62.197
X11.857Y-2.364
X11.857Y-18.364
X11.857Y-34.364
X11.857Y-50.364
X12.05Y-2.95
X12.05Y-18.95
X12.05Y-34.95
X12.05Y-50.95
X12.088Y-13.742
X12.088Y-29.742
X12.088Y-45.742
X12.088Y-61.742
X12.175Y-5.775
X12.175Y-21.775
X12.175Y-37.775
X12.175Y-53.775
X12.2Y-12.75
X12.2Y-28.75
X12.2Y-44.75
X12.2Y-60.75
X12.224Y-12.176
X12.224Y-28.176
X12.224Y-44.176
X12.224Y-60.176
X12.25Y-6.765
X12.25Y-22.765
X12.25Y-38.765
X12.25Y-54.765
X12.293Y-9.8
X12.293Y-25.8
X12.293Y-41.8
X12.293Y-57.8
X12.301Y-9.107
X12.301Y-25.107
X12.301Y-41.107
X12.301Y-57.107
X12.32Y-11.09
X12.32Y-27.09
X12.32Y-43.09
X12.32Y-59.09
X12.486Y-7.29
X12.486Y-23.29
X12.486Y-39.29
X12.486Y-55.29
X12.517Y-11.681
X12.517Y-27.681
X12.517Y-43.681
X12.517Y-59.681
X12.599Y-6.163
X12.599Y-22.163
X12.599Y-38.163
X12.599Y-54.163
X12.7Y-13.35
X12.7Y-29.35
X12.7Y-45.35
X12.7Y-61.35
X13.0Y-14.335
X13.0Y-15.25
X13.0Y-30.335
X13.0Y-31.25
X13.0Y-46.335
X13.0Y-47.25
X13.0Y-62.335
X13.0Y-63.25
X13.2Y-6.935
X13.2Y-22.935
X13.2Y-38.935
X13.2Y-54.935
X13.24Y-6.31
X13.24Y-22.31
X13.24Y-38.31
X13.24Y-54.31
X13.25Y-8.88
X13.25Y-10.82
X13.25Y-11.59
X13.25Y-24.88
X13.25Y-26.82
X13.25Y-27.59
X13.25Y-40.88
X13.25Y-42.82
X13.25Y-43.59
X13.25Y-56.88
X13.25Y-58.82
X13.25Y-59.59
X13.26Y-3.75
X13.26Y-4.33
X13.26Y-19.75
X13.26Y-20.33
X13.26Y-35.75
X13.26Y-36.33
X13.26Y-51.75
X13.26Y-52.33
X13.27Y-1.81
X13.27Y-17.81
X13.27Y-33.81
X13.27Y-49.81
X14.74Y-2.19
X14.74Y-9.01
X14.74Y-12.1
X14.74Y-18.19
X14.74Y-25.01
X14.74Y-28.1
X14.74Y-34.19
X14.74Y-41.01
X14.74Y-44.1
X14.74Y-50.19
X14.74Y-57.01
X14.74Y-60.1
X14.75Y-4.2
X14.75Y-10.28
X14.75Y-14.52
X14.75Y-20.2
X14.75Y-26.28
X14.75Y-30.52
X14.75Y-36.2
X14.75Y-42.28
X14.75Y-46.52
X14.75Y-52.2
X14.75Y-58.28
X14.75Y-62.52
X14.76Y-7.07
X14.76Y-12.69
X14.76Y-23.07
X14.76Y-28.69
X14.76Y-39.07
X14.76Y-44.69
X14.76Y-55.07
X14.76Y-60.69
X15.0Y-0.75
X15.0Y-9.75
X15.0Y-15.2
X15.0Y-16.75
X15.0Y-25.75
X15.0Y-31.2
X15.0Y-32.75
X15.0Y-41.75
X15.0Y-47.2
X15.0Y-48.75
X15.0Y-57.75
X15.0Y-63.2
X15.38Y-4.47
X15.38Y-20.47
X15.38Y-36.47
X15.38Y-52.47
X15.5Y-2.5
X15.5Y-18.5
X15.5Y-34.5
X15.5Y-50.5
X15.54Y-8.1
X15.54Y-24.1
X15.54Y-40.1
X15.54Y-56.1
X15.629Y-5.072
X15.629Y-21.072
X15.629Y-37.072
X15.629Y-53.072
X15.649Y-6.833
X15.649Y-22.833
X15.649Y-38.833
X15.649Y-54.833
X15.65Y-5.647
X15.65Y-21.647
X15.65Y-37.647
X15.65Y-53.647
X15.65Y-10.0
X15.65Y-26.0
X15.65Y-42.0
X15.65Y-58.0
X15.651Y-6.222
X15.651Y-22.222
X15.651Y-38.222
X15.651Y-54.222
X15.66Y-8.78
X15.66Y-24.78
X15.66Y-40.78
X15.66Y-56.78
X15.661Y-9.39
X15.661Y-25.39
X15.661Y-41.39
X15.661Y-57.39
X15.95Y-3.4
X15.95Y-12.9
X15.95Y-19.4
X15.95Y-28.9
X15.95Y-35.4
X15.95Y-44.9
X15.95Y-51.4
X15.95Y-60.9
X16.338Y-13.424
X16.338Y-29.424
X16.338Y-45.424
X16.338Y-61.424
X16.41Y-2.411
X16.41Y-18.411
X16.41Y-34.411
X16.41Y-50.411
X16.465Y-1.762
X16.465Y-17.762
X16.465Y-33.762
X16.465Y-49.762
X16.483Y-14.017
X16.483Y-30.017
X16.483Y-46.017
X16.483Y-62.017
X16.993Y-1.455
X16.993Y-17.455
X16.993Y-33.455
X16.993Y-49.455
X17.0Y-0.75
X17.0Y-16.75
X17.0Y-32.75
X17.0Y-48.75
X17.07Y-14.183
X17.07Y-30.183
X17.07Y-46.183
X17.07Y-62.183
X17.35Y-15.25
X17.35Y-31.25
X17.35Y-47.25
X17.35Y-63.25
X17.604Y-14.477
X17.604Y-30.477
X17.604Y-46.477
X17.604Y-62.477
X17.61Y-10.045
X17.61Y-26.045
X17.61Y-42.045
X17.61Y-58.045
X17.643Y-1.225
X17.643Y-17.225
X17.643Y-33.225
X17.643Y-49.225
X17.75Y-6.058
X17.75Y-6.928
X17.75Y-8.235
X17.75Y-9.157
X17.75Y-22.058
X17.75Y-22.928
X17.75Y-24.235
X17.75Y-25.157
X17.75Y-38.058
X17.75Y-38.928
X17.75Y-40.235
X17.75Y-41.157
X17.75Y-54.058
X17.75Y-54.928
X17.75Y-56.235
X17.75Y-57.157
X18.15Y-14.75
X18.15Y-30.75
X18.15Y-46.75
X18.15Y-62.75
X18.244Y-1.117
X18.244Y-17.117
X18.244Y-33.117
X18.244Y-49.117
X18.704Y-15.004
X18.704Y-31.004
X18.704Y-47.004
X18.704Y-63.004
X18.85Y-1.05
X18.85Y-17.05
X18.85Y-33.05
X18.85Y-49.05
X20.3Y-14.8
X20.3Y-30.8
X20.3Y-46.8
X20.3Y-62.8
X20.4Y-1.2
X20.4Y-17.2
X20.4Y-33.2
X20.4Y-49.2
X20.43Y-11.1
X20.43Y-27.1
X20.43Y-43.1
X20.43Y-59.1
X21.0Y-0.75
X21.0Y-2.1
X21.0Y-4.3
X21.0Y-5.64
X21.0Y-7.62
X21.0Y-8.85
X21.0Y-10.37
X21.0Y-13.85
X21.0Y-15.2
X21.0Y-16.75
X21.0Y-18.1
X21.0Y-20.3
X21.0Y-21.64
X21.0Y-23.62
X21.0Y-24.85
X21.0Y-26.37
X21.0Y-29.85
X21.0Y-31.2
X21.0Y-32.75
X21.0Y-34.1
X21.0Y-36.3
X21.0Y-37.64
X21.0Y-39.62
X21.0Y-40.85
X21.0Y-42.37
X21.0Y-45.85
X21.0Y-47.2
X21.0Y-48.75
X21.0Y-50.1
X21.0Y-52.3
X21.0Y-53.64
X21.0Y-55.62
X21.0Y-56.85
X21.0Y-58.37
X21.0Y-61.85
X21.0Y-63.2
X21.52Y-11.1
X21.52Y-27.1
X21.52Y-43.1
X21.52Y-59.1
X21.6Y-1.2
X21.6Y-17.2
X21.6Y-33.2
X21.6Y-49.2
X21.65Y-14.8
X21.65Y-30.8
X21.65Y-46.8
X21.65Y-62.8
X23.15Y-1.0
X23.15Y-17.0
X23.15Y-33.0
X23.15Y-49.0
X23.3Y-14.95
X23.3Y-30.95
X23.3Y-46.95
X23.3Y-62.95
X23.757Y-1.055
X23.757Y-17.055
X23.757Y-33.055
X23.757Y-49.055
X23.918Y-14.726
X23.918Y-30.726
X23.918Y-46.726
X23.918Y-62.726
X24.16Y-9.65
X24.16Y-25.65
X24.16Y-41.65
X24.16Y-57.65
X24.17Y-10.26
X24.17Y-26.26
X24.17Y-42.26
X24.17Y-58.26
X24.25Y-8.65
X24.25Y-24.65
X24.25Y-40.65
X24.25Y-56.65
X24.27Y-7.015
X24.27Y-23.015
X24.27Y-39.015
X24.27Y-55.015
X24.35Y-1.25
X24.35Y-17.25
X24.35Y-33.25
X24.35Y-49.25
X24.38Y-6.125
X24.38Y-22.125
X24.38Y-38.125
X24.38Y-54.125
X24.48Y-14.49
X24.48Y-30.49
X24.48Y-46.49
X24.48Y-62.49
X24.89Y-1.656
X24.89Y-17.656
X24.89Y-33.656
X24.89Y-49.656
X25.0Y-0.75
X25.0Y-15.25
X25.0Y-16.75
X25.0Y-31.25
X25.0Y-32.75
X25.0Y-47.25
X25.0Y-48.75
X25.0Y-63.25
X25.079Y-14.293
X25.079Y-30.293
X25.079Y-46.293
X25.079Y-62.293
X25.44Y-1.919
X25.44Y-17.919
X25.44Y-33.919
X25.44Y-49.919
X25.681Y-14.197
X25.681Y-30.197
X25.681Y-46.197
X25.681Y-62.197
X25.857Y-2.364
X25.857Y-18.364
X25.857Y-34.364
X25.857Y-50.364
X26.05Y-2.95
X26.05Y-18.95
X26.05Y-34.95
X26.05Y-50.95
X26.088Y-13.742
X26.088Y-29.742
X26.088Y-45.742
X26.088Y-61.742
X26.175Y-5.775
X26.175Y-21.775
X26.175Y-37.775
X26.175Y-53.775
X26.2Y-12.75
X26.2Y-28.75
X26.2Y-44.75
X26.2Y-60.75
X26.224Y-12.176
X26.224Y-28.176
X26.224Y-44.176
X26.224Y-60.176
X26.25Y-6.765
X26.25Y-22.765
X26.25Y-38.765
X26.25Y-54.765
X26.293Y-9.8
X26.293Y-25.8
X26.293Y-41.8
X26.293Y-57.8
X26.301Y-9.107
X26.301Y-25.107
X26.301Y-41.107
X26.301Y-57.107
X26.32Y-11.09
X26.32Y-27.09
X26.32Y-43.09
X26.32Y-59.09
X26.486Y-7.29
X26.486Y-23.29
X26.486Y-39.29
X26.486Y-55.29
X26.517Y-11.681
X26.517Y-27.681
X26.517Y-43.681
X26.517Y-59.681
X26.599Y-6.163
X26.599Y-22.163
X26.599Y-38.163
X26.599Y-54.163
X26.7Y-13.35
X26.7Y-29.35
X26.7Y-45.35
X26.7Y-61.35
X27.0Y-14.335
X27.0Y-15.25
X27.0Y-30.335
X27.0Y-31.25
X27.0Y-46.335
X27.0Y-47.25
X27.0Y-62.335
X27.0Y-63.25
X27.2Y-6.935
X27.2Y-22.935
X27.2Y-38.935
X27.2Y-54.935
X27.24Y-6.31
X27.24Y-22.31
X27.24Y-38.31
X27.24Y-54.31
X27.25Y-8.88
X27.25Y-10.82
X27.25Y-11.59
X27.25Y-24.88
X27.25Y-26.82
X27.25Y-27.59
X27.25Y-40.88
X27.25Y-42.82
X27.25Y-43.59
X27.25Y-56.88
X27.25Y-58.82
X27.25Y-59.59
X27.26Y-3.75
X27.26Y-4.33
X27.26Y-19.75
X27.26Y-20.33
X27.26Y-35.75
X27.26Y-36.33
X27.26Y-51.75
X27.26Y-52.33
X27.27Y-1.81
X27.27Y-17.81
X27.27Y-33.81
X27.27Y-49.81
X28.74Y-2.19
X28.74Y-9.01
X28.74Y-12.1
X28.74Y-18.19
X28.74Y-25.01
X28.74Y-28.1
X28.74Y-34.19
X28.74Y-41.01
X28.74Y-44.1
X28.74Y-50.19
X28.74Y-57.01
X28.74Y-60.1
X28.75Y-4.2
X28.75Y-10.28
X28.75Y-14.52
X28.75Y-20.2
X28.75Y-26.28
X28.75Y-30.52
X28.75Y-36.2
X28.75Y-42.28
X28.75Y-46.52
X28.75Y-52.2
X28.75Y-58.28
X28.75Y-62.52
X28.76Y-7.07
X28.76Y-12.69
X28.76Y-23.07
X28.76Y-28.69
X28.76Y-39.07
X28.76Y-44.69
X28.76Y-55.07
X28.76Y-60.69
X29.0Y-0.75
X29.0Y-9.75
X29.0Y-15.2
X29.0Y-16.75
X29.0Y-25.75
X29.0Y-31.2
X29.0Y-32.75
X29.0Y-41.75
X29.0Y-47.2
X29.0Y-48.75
X29.0Y-57.75
X29.0Y-63.2
X29.38Y-4.47
X29.38Y-20.47
X29.38Y-36.47
X29.38Y-52.47
X29.5Y-2.5
X29.5Y-18.5
X29.5Y-34.5
X29.5Y-50.5
X29.54Y-8.1
X29.54Y-24.1
X29.54Y-40.1
X29.54Y-56.1
X29.629Y-5.072
X29.629Y-21.072
X29.629Y-37.072
X29.629Y-53.072
X29.649Y-6.833
X29.649Y-22.833
X29.649Y-38.833
X29.649Y-54.833
X29.65Y-5.647
X29.65Y-21.647
X29.65Y-37.647
X29.65Y-53.647
X29.65Y-10.0
X29.65Y-26.0
X29.65Y-42.0
X29.65Y-58.0
X29.651Y-6.222
X29.651Y-22.222
X29.651Y-38.222
X29.651Y-54.222
X29.66Y-8.78
X29.66Y-24.78
X29.66Y-40.78
X29.66Y-56.78
X29.661Y-9.39
X29.661Y-25.39
X29.661Y-41.39
X29.661Y-57.39
X29.95Y-3.4
X29.95Y-12.9
X29.95Y-19.4
X29.95Y-28.9
X29.95Y-35.4
X29.95Y-44.9
X29.95Y-51.4
X29.95Y-60.9
X30.338Y-13.424
X30.338Y-29.424
X30.338Y-45.424
X30.338Y-61.424
X30.41Y-2.411
X30.41Y-18.411
X30.41Y-34.411
X30.41Y-50.411
X30.465Y-1.762
X30.465Y-17.762
X30.465Y-33.762
X30.465Y-49.762
X30.483Y-14.017
X30.483Y-30.017
X30.483Y-46.017
X30.483Y-62.017
X30.993Y-1.455
X30.993Y-17.455
X30.993Y-33.455
X30.993Y-49.455
X31.0Y-0.75
X31.0Y-16.75
X31.0Y-32.75
X31.0Y-48.75
X31.07Y-14.183
X31.07Y-30.183
X31.07Y-46.183
X31.07Y-62.183
X31.35Y-15.25
X31.35Y-31.25
X31.35Y-47.25
X31.35Y-63.25
X31.604Y-14.477
X31.604Y-30.477
X31.604Y-46.477
X31.604Y-62.477
X31.61Y-10.045
X31.61Y-26.045
X31.61Y-42.045
X31.61Y-58.045
X31.643Y-1.225
X31.643Y-17.225
X31.643Y-33.225
X31.643Y-49.225
X31.75Y-6.058
X31.75Y-6.928
X31.75Y-8.235
X31.75Y-9.157
X31.75Y-22.058
X31.75Y-22.928
X31.75Y-24.235
X31.75Y-25.157
X31.75Y-38.058
X31.75Y-38.928
X31.75Y-40.235
X31.75Y-41.157
X31.75Y-54.058
X31.75Y-54.928
X31.75Y-56.235
X31.75Y-57.157
X32.15Y-14.75
X32.15Y-30.75
X32.15Y-46.75
X32.15Y-62.75
X32.244Y-1.117
X32.244Y-17.117
X32.244Y-33.117
X32.244Y-49.117
X32.704Y-15.004
X32.704Y-31.004
X32.704Y-47.004
X32.704Y-63.004
X32.85Y-1.05
X32.85Y-17.05
X32.85Y-33.05
X32.85Y-49.05
X34.3Y-14.8
X34.3Y-30.8
X34.3Y-46.8
X34.3Y-62.8
X34.4Y-1.2
X34.4Y-17.2
X34.4Y-33.2
X34.4Y-49.2
X34.43Y-11.1
X34.43Y-27.1
X34.43Y-43.1
X34.43Y-59.1
X35.0Y-0.75
X35.0Y-2.1
X35.0Y-4.3
X35.0Y-5.64
X35.0Y-7.62
X35.0Y-8.85
X35.0Y-10.37
X35.0Y-13.85
X35.0Y-15.2
X35.0Y-16.75
X35.0Y-18.1
X35.0Y-20.3
X35.0Y-21.64
X35.0Y-23.62
X35.0Y-24.85
X35.0Y-26.37
X35.0Y-29.85
X35.0Y-31.2
X35.0Y-32.75
X35.0Y-34.1
X35.0Y-36.3
X35.0Y-37.64
X35.0Y-39.62
X35.0Y-40.85
X35.0Y-42.37
X35.0Y-45.85
X35.0Y-47.2
X35.0Y-48.75
X35.0Y-50.1
X35.0Y-52.3
X35.0Y-53.64
X35.0Y-55.62
X35.0Y-56.85
X35.0Y-58.37
X35.0Y-61.85
X35.0Y-63.2
X35.52Y-11.1
X35.52Y-27.1
X35.52Y-43.1
X35.52Y-59.1
X35.6Y-1.2
X35.6Y-17.2
X35.6Y-33.2
X35.6Y-49.2
X35.65Y-14.8
X35.65Y-30.8
X35.65Y-46.8
X35.65Y-62.8
X37.15Y-1.0
X37.15Y-17.0
X37.15Y-33.0
X37.15Y-49.0
X37.3Y-14.95
X37.3Y-30.95
X37.3Y-46.95
X37.3Y-62.95
X37.757Y-1.055
X37.757Y-17.055
X37.757Y-33.055
X37.757Y-49.055
X37.918Y-14.726
X37.918Y-30.726
X37.918Y-46.726
X37.918Y-62.726
X38.16Y-9.65
X38.16Y-25.65
X38.16Y-41.65
X38.16Y-57.65
X38.17Y-10.26
X38.17Y-26.26
X38.17Y-42.26
X38.17Y-58.26
X38.25Y-8.65
X38.25Y-24.65
X38.25Y-40.65
X38.25Y-56.65
X38.27Y-7.015
X38.27Y-23.015
X38.27Y-39.015
X38.27Y-55.015
X38.35Y-1.25
X38.35Y-17.25
X38.35Y-33.25
X38.35Y-49.25
X38.38Y-6.125
X38.38Y-22.125
X38.38Y-38.125
X38.38Y-54.125
X38.48Y-14.49
X38.48Y-30.49
X38.48Y-46.49
X38.48Y-62.49
X38.89Y-1.656
X38.89Y-17.656
X38.89Y-33.656
X38.89Y-49.656
X39.0Y-0.75
X39.0Y-15.25
X39.0Y-16.75
X39.0Y-31.25
X39.0Y-32.75
X39.0Y-47.25
X39.0Y-48.75
X39.0Y-63.25
X39.079Y-14.293
X39.079Y-30.293
X39.079Y-46.293
X39.079Y-62.293
X39.44Y-1.919
X39.44Y-17.919
X39.44Y-33.919
X39.44Y-49.919
X39.681Y-14.197
X39.681Y-30.197
X39.681Y-46.197
X39.681Y-62.197
X39.857Y-2.364
X39.857Y-18.364
X39.857Y-34.364
X39.857Y-50.364
X40.05Y-2.95
X40.05Y-18.95
X40.05Y-34.95
X40.05Y-50.95
X40.088Y-13.742
X40.088Y-29.742
X40.088Y-45.742
X40.088Y-61.742
X40.175Y-5.775
X40.175Y-21.775
X40.175Y-37.775
X40.175Y-53.775
X40.2Y-12.75
X40.2Y-28.75
X40.2Y-44.75
X40.2Y-60.75
X40.224Y-12.176
X40.224Y-28.176
X40.224Y-44.176
X40.224Y-60.176
X40.25Y-6.765
X40.25Y-22.765
X40.25Y-38.765
X40.25Y-54.765
X40.293Y-9.8
X40.293Y-25.8
X40.293Y-41.8
X40.293Y-57.8
X40.301Y-9.107
X40.301Y-25.107
X40.301Y-41.107
X40.301Y-57.107
X40.32Y-11.09
X40.32Y-27.09
X40.32Y-43.09
X40.32Y-59.09
X40.486Y-7.29
X40.486Y-23.29
X40.486Y-39.29
X40.486Y-55.29
X40.517Y-11.681
X40.517Y-27.681
X40.517Y-43.681
X40.517Y-59.681
X40.599Y-6.163
X40.599Y-22.163
X40.599Y-38.163
X40.599Y-54.163
X40.7Y-13.35
X40.7Y-29.35
X40.7Y-45.35
X40.7Y-61.35
X41.0Y-14.335
X41.0Y-15.25
X41.0Y-30.335
X41.0Y-31.25
X41.0Y-46.335
X41.0Y-47.25
X41.0Y-62.335
X41.0Y-63.25
X41.2Y-6.935
X41.2Y-22.935
X41.2Y-38.935
X41.2Y-54.935
X41.24Y-6.31
X41.24Y-22.31
X41.24Y-38.31
X41.24Y-54.31
X41.25Y-8.88
X41.25Y-10.82
X41.25Y-11.59
X41.25Y-24.88
X41.25Y-26.82
X41.25Y-27.59
X41.25Y-40.88
X41.25Y-42.82
X41.25Y-43.59
X41.25Y-56.88
X41.25Y-58.82
X41.25Y-59.59
X41.26Y-3.75
X41.26Y-4.33
X41.26Y-19.75
X41.26Y-20.33
X41.26Y-35.75
X41.26Y-36.33
X41.26Y-51.75
X41.26Y-52.33
X41.27Y-1.81
X41.27Y-17.81
X41.27Y-33.81
X41.27Y-49.81
X42.74Y-2.19
X42.74Y-9.01
X42.74Y-12.1
X42.74Y-18.19
X42.74Y-25.01
X42.74Y-28.1
X42.74Y-34.19
X42.74Y-41.01
X42.74Y-44.1
X42.74Y-50.19
X42.74Y-57.01
X42.74Y-60.1
X42.75Y-4.2
X42.75Y-10.28
X42.75Y-14.52
X42.75Y-20.2
X42.75Y-26.28
X42.75Y-30.52
X42.75Y-36.2
X42.75Y-42.28
X42.75Y-46.52
X42.75Y-52.2
X42.75Y-58.28
X42.75Y-62.52
X42.76Y-7.07
X42.76Y-12.69
X42.76Y-23.07
X42.76Y-28.69
X42.76Y-39.07
X42.76Y-44.69
X42.76Y-55.07
X42.76Y-60.69
X43.0Y-0.75
X43.0Y-9.75
X43.0Y-15.2
X43.0Y-16.75
X43.0Y-25.75
X43.0Y-31.2
X43.0Y-32.75
X43.0Y-41.75
X43.0Y-47.2
X43.0Y-48.75
X43.0Y-57.75
X43.0Y-63.2
X43.38Y-4.47
X43.38Y-20.47
X43.38Y-36.47
X43.38Y-52.47
X43.5Y-2.5
X43.5Y-18.5
X43.5Y-34.5
X43.5Y-50.5
X43.54Y-8.1
X43.54Y-24.1
X43.54Y-40.1
X43.54Y-56.1
X43.629Y-5.072
X43.629Y-21.072
X43.629Y-37.072
X43.629Y-53.072
X43.649Y-6.833
X43.649Y-22.833
X43.649Y-38.833
X43.649Y-54.833
X43.65Y-5.647
X43.65Y-21.647
X43.65Y-37.647
X43.65Y-53.647
X43.65Y-10.0
X43.65Y-26.0
X43.65Y-42.0
X43.65Y-58.0
X43.651Y-6.222
X43.651Y-22.222
X43.651Y-38.222
X43.651Y-54.222
X43.66Y-8.78
X43.66Y-24.78
X43.66Y-40.78
X43.66Y-56.78
X43.661Y-9.39
X43.661Y-25.39
X43.661Y-41.39
X43.661Y-57.39
X43.95Y-3.4
X43.95Y-12.9
X43.95Y-19.4
X43.95Y-28.9
X43.95Y-35.4
X43.95Y-44.9
X43.95Y-51.4
X43.95Y-60.9
X44.338Y-13.424
X44.338Y-29.424
X44.338Y-45.424
X44.338Y-61.424
X44.41Y-2.411
X44.41Y-18.411
X44.41Y-34.411
X44.41Y-50.411
X44.465Y-1.762
X44.465Y-17.762
X44.465Y-33.762
X44.465Y-49.762
X44.483Y-14.017
X44.483Y-30.017
X44.483Y-46.017
X44.483Y-62.017
X44.993Y-1.455
X44.993Y-17.455
X44.993Y-33.455
X44.993Y-49.455
X45.0Y-0.75
X45.0Y-16.75
X45.0Y-32.75
X45.0Y-48.75
X45.07Y-14.183
X45.07Y-30.183
X45.07Y-46.183
X45.07Y-62.183
X45.35Y-15.25
X45.35Y-31.25
X45.35Y-47.25
X45.35Y-63.25
X45.604Y-14.477
X45.604Y-30.477
X45.604Y-46.477
X45.604Y-62.477
X45.61Y-10.045
X45.61Y-26.045
X45.61Y-42.045
X45.61Y-58.045
X45.643Y-1.225
X45.643Y-17.225
X45.643Y-33.225
X45.643Y-49.225
X45.75Y-6.058
X45.75Y-6.928
X45.75Y-8.235
X45.75Y-9.157
X45.75Y-22.058
X45.75Y-22.928
X45.75Y-24.235
X45.75Y-25.157
X45.75Y-38.058
X45.75Y-38.928
X45.75Y-40.235
X45.75Y-41.157
X45.75Y-54.058
X45.75Y-54.928
X45.75Y-56.235
X45.75Y-57.157
X46.15Y-14.75
X46.15Y-30.75
X46.15Y-46.75
X46.15Y-62.75
X46.244Y-1.117
X46.244Y-17.117
X46.244Y-33.117
X46.244Y-49.117
X46.704Y-15.004
X46.704Y-31.004
X46.704Y-47.004
X46.704Y-63.004
X46.85Y-1.05
X46.85Y-17.05
X46.85Y-33.05
X46.85Y-49.05
X48.3Y-14.8
X48.3Y-30.8
X48.3Y-46.8
X48.3Y-62.8
X48.4Y-1.2
X48.4Y-17.2
X48.4Y-33.2
X48.4Y-49.2
X48.43Y-11.1
X48.43Y-27.1
X48.43Y-43.1
X48.43Y-59.1
X49.0Y-0.75
X49.0Y-2.1
X49.0Y-4.3
X49.0Y-5.64
X49.0Y-7.62
X49.0Y-8.85
X49.0Y-10.37
X49.0Y-13.85
X49.0Y-15.2
X49.0Y-16.75
X49.0Y-18.1
X49.0Y-20.3
X49.0Y-21.64
X49.0Y-23.62
X49.0Y-24.85
X49.0Y-26.37
X49.0Y-29.85
X49.0Y-31.2
X49.0Y-32.75
X49.0Y-34.1
X49.0Y-36.3
X49.0Y-37.64
X49.0Y-39.62
X49.0Y-40.85
X49.0Y-42.37
X49.0Y-45.85
X49.0Y-47.2
X49.0Y-48.75
X49.0Y-50.1
X49.0Y-52.3
X49.0Y-53.64
X49.0Y-55.62
X49.0Y-56.85
X49.0Y-58.37
X49.0Y-61.85
X49.0Y-63.2
X49.52Y-11.1
X49.52Y-27.1
X49.52Y-43.1
X49.52Y-59.1
X49.6Y-1.2
X49.6Y-17.2
X49.6Y-33.2
X49.6Y-49.2
X49.65Y-14.8
X49.65Y-30.8
X49.65Y-46.8
X49.65Y-62.8
X51.15Y-1.0
X51.15Y-17.0
X51.15Y-33.0
X51.15Y-49.0
X51.3Y-14.95
X51.3Y-30.95
X51.3Y-46.95
X51.3Y-62.95
X51.757Y-1.055
X51.757Y-17.055
X51.757Y-33.055
X51.757Y-49.055
X51.918Y-14.726
X51.918Y-30.726
X51.918Y-46.726
X51.918Y-62.726
X52.16Y-9.65
X52.16Y-25.65
X52.16Y-41.65
X52.16Y-57.65
X52.17Y-10.26
X52.17Y-26.26
X52.17Y-42.26
X52.17Y-58.26
X52.25Y-8.65
X52.25Y-24.65
X52.25Y-40.65
X52.25Y-56.65
X52.27Y-7.015
X52.27Y-23.015
X52.27Y-39.015
X52.27Y-55.015
X52.35Y-1.25
X52.35Y-17.25
X52.35Y-33.25
X52.35Y-49.25
X52.38Y-6.125
X52.38Y-22.125
X52.38Y-38.125
X52.38Y-54.125
X52.48Y-14.49
X52.48Y-30.49
X52.48Y-46.49
X52.48Y-62.49
X52.89Y-1.656
X52.89Y-17.656
X52.89Y-33.656
X52.89Y-49.656
X53.0Y-0.75
X53.0Y-15.25
X53.0Y-16.75
X53.0Y-31.25
X53.0Y-32.75
X53.0Y-47.25
X53.0Y-48.75
X53.0Y-63.25
X53.079Y-14.293
X53.079Y-30.293
X53.079Y-46.293
X53.079Y-62.293
X53.44Y-1.919
X53.44Y-17.919
X53.44Y-33.919
X53.44Y-49.919
X53.681Y-14.197
X53.681Y-30.197
X53.681Y-46.197
X53.681Y-62.197
X53.857Y-2.364
X53.857Y-18.364
X53.857Y-34.364
X53.857Y-50.364
X54.05Y-2.95
X54.05Y-18.95
X54.05Y-34.95
X54.05Y-50.95
X54.088Y-13.742
X54.088Y-29.742
X54.088Y-45.742
X54.088Y-61.742
X54.175Y-5.775
X54.175Y-21.775
X54.175Y-37.775
X54.175Y-53.775
X54.2Y-12.75
X54.2Y-28.75
X54.2Y-44.75
X54.2Y-60.75
X54.224Y-12.176
X54.224Y-28.176
X54.224Y-44.176
X54.224Y-60.176
X54.25Y-6.765
X54.25Y-22.765
X54.25Y-38.765
X54.25Y-54.765
X54.293Y-9.8
X54.293Y-25.8
X54.293Y-41.8
X54.293Y-57.8
X54.301Y-9.107
X54.301Y-25.107
X54.301Y-41.107
X54.301Y-57.107
X54.32Y-11.09
X54.32Y-27.09
X54.32Y-43.09
X54.32Y-59.09
X54.486Y-7.29
X54.486Y-23.29
X54.486Y-39.29
X54.486Y-55.29
X54.517Y-11.681
X54.517Y-27.681
X54.517Y-43.681
X54.517Y-59.681
X54.599Y-6.163
X54.599Y-22.163
X54.599Y-38.163
X54.599Y-54.163
X54.7Y-13.35
X54.7Y-29.35
X54.7Y-45.35
X54.7Y-61.35
X55.0Y-14.335
X55.0Y-15.25
X55.0Y-30.335
X55.0Y-31.25
X55.0Y-46.335
X55.0Y-47.25
X55.0Y-62.335
X55.0Y-63.25
X55.2Y-6.935
X55.2Y-22.935
X55.2Y-38.935
X55.2Y-54.935
X55.24Y-6.31
X55.24Y-22.31
X55.24Y-38.31
X55.24Y-54.31
X55.25Y-8.88
X55.25Y-10.82
X55.25Y-11.59
X55.25Y-24.88
X55.25Y-26.82
X55.25Y-27.59
X55.25Y-40.88
X55.25Y-42.82
X55.25Y-43.59
X55.25Y-56.88
X55.25Y-58.82
X55.25Y-59.59
X55.26Y-3.75
X55.26Y-4.33
X55.26Y-19.75
X55.26Y-20.33
X55.26Y-35.75
X55.26Y-36.33
X55.26Y-51.75
X55.26Y-52.33
X55.27Y-1.81
X55.27Y-17.81
X55.27Y-33.81
X55.27Y-49.81
X56.74Y-2.19
X56.74Y-9.01
X56.74Y-12.1
X56.74Y-18.19
X56.74Y-25.01
X56.74Y-28.1
X56.74Y-34.19
X56.74Y-41.01
X56.74Y-44.1
X56.74Y-50.19
X56.74Y-57.01
X56.74Y-60.1
X56.75Y-4.2
X56.75Y-10.28
X56.75Y-14.52
X56.75Y-20.2
X56.75Y-26.28
X56.75Y-30.52
X56.75Y-36.2
X56.75Y-42.28
X56.75Y-46.52
X56.75Y-52.2
X56.75Y-58.28
X56.75Y-62.52
X56.76Y-7.07
X56.76Y-12.69
X56.76Y-23.07
X56.76Y-28.69
X56.76Y-39.07
X56.76Y-44.69
X56.76Y-55.07
X56.76Y-60.69
X57.0Y-0.75
X57.0Y-9.75
X57.0Y-15.2
X57.0Y-16.75
X57.0Y-25.75
X57.0Y-31.2
X57.0Y-32.75
X57.0Y-41.75
X57.0Y-47.2
X57.0Y-48.75
X57.0Y-57.75
X57.0Y-63.2
X57.38Y-4.47
X57.38Y-20.47
X57.38Y-36.47
X57.38Y-52.47
X57.5Y-2.5
X57.5Y-18.5
X57.5Y-34.5
X57.5Y-50.5
X57.54Y-8.1
X57.54Y-24.1
X57.54Y-40.1
X57.54Y-56.1
X57.629Y-5.072
X57.629Y-21.072
X57.629Y-37.072
X57.629Y-53.072
X57.649Y-6.833
X57.649Y-22.833
X57.649Y-38.833
X57.649Y-54.833
X57.65Y-5.647
X57.65Y-21.647
X57.65Y-37.647
X57.65Y-53.647
X57.65Y-10.0
X57.65Y-26.0
X57.65Y-42.0
X57.65Y-58.0
X57.651Y-6.222
X57.651Y-22.222
X57.651Y-38.222
X57.651Y-54.222
X57.66Y-8.78
X57.66Y-24.78
X57.66Y-40.78
X57.66Y-56.78
X57.661Y-9.39
X57.661Y-25.39
X57.661Y-41.39
X57.661Y-57.39
X57.95Y-3.4
X57.95Y-12.9
X57.95Y-19.4
X57.95Y-28.9
X57.95Y-35.4
X57.95Y-44.9
X57.95Y-51.4
X57.95Y-60.9
X58.338Y-13.424
X58.338Y-29.424
X58.338Y-45.424
X58.338Y-61.424
X58.41Y-2.411
X58.41Y-18.411
X58.41Y-34.411
X58.41Y-50.411
X58.465Y-1.762
X58.465Y-17.762
X58.465Y-33.762
X58.465Y-49.762
X58.483Y-14.017
X58.483Y-30.017
X58.483Y-46.017
X58.483Y-62.017
X58.993Y-1.455
X58.993Y-17.455
X58.993Y-33.455
X58.993Y-49.455
X59.0Y-0.75
X59.0Y-16.75
X59.0Y-32.75
X59.0Y-48.75
X59.07Y-14.183
X59.07Y-30.183
X59.07Y-46.183
X59.07Y-62.183
X59.35Y-15.25
X59.35Y-31.25
X59.35Y-47.25
X59.35Y-63.25
X59.604Y-14.477
X59.604Y-30.477
X59.604Y-46.477
X59.604Y-62.477
X59.61Y-10.045
X59.61Y-26.045
X59.61Y-42.045
X59.61Y-58.045
X59.643Y-1.225
X59.643Y-17.225
X59.643Y-33.225
X59.643Y-49.225
X59.75Y-6.058
X59.75Y-6.928
X59.75Y-8.235
X59.75Y-9.157
X59.75Y-22.058
X59.75Y-22.928
X59.75Y-24.235
X59.75Y-25.157
X59.75Y-38.058
X59.75Y-38.928
X59.75Y-40.235
X59.75Y-41.157
X59.75Y-54.058
X59.75Y-54.928
X59.75Y-56.235
X59.75Y-57.157
X60.15Y-14.75
X60.15Y-30.75
X60.15Y-46.75
X60.15Y-62.75
X60.244Y-1.117
X60.244Y-17.117
X60.244Y-33.117
X60.244Y-49.117
X60.704Y-15.004
X60.704Y-31.004
X60.704Y-47.004
X60.704Y-63.004
X60.85Y-1.05
X60.85Y-17.05
X60.85Y-33.05
X60.85Y-49.05
X62.3Y-14.8
X62.3Y-30.8
X62.3Y-46.8
X62.3Y-62.8
X62.4Y-1.2
X62.4Y-17.2
X62.4Y-33.2
X62.4Y-49.2
X62.43Y-11.1
X62.43Y-27.1
X62.43Y-43.1
X62.43Y-59.1
X63.0Y-0.75
X63.0Y-2.1
X63.0Y-4.3
X63.0Y-5.64
X63.0Y-7.62
X63.0Y-8.85
X63.0Y-10.37
X63.0Y-13.85
X63.0Y-15.2
X63.0Y-16.75
X63.0Y-18.1
X63.0Y-20.3
X63.0Y-21.64
X63.0Y-23.62
X63.0Y-24.85
X63.0Y-26.37
X63.0Y-29.85
X63.0Y-31.2
X63.0Y-32.75
X63.0Y-34.1
X63.0Y-36.3
X63.0Y-37.64
X63.0Y-39.62
X63.0Y-40.85
X63.0Y-42.37
X63.0Y-45.85
X63.0Y-47.2
X63.0Y-48.75
X63.0Y-50.1
X63.0Y-52.3
X63.0Y-53.64
X63.0Y-55.62
X63.0Y-56.85
X63.0Y-58.37
X63.0Y-61.85
X63.0Y-63.2
X63.52Y-11.1
X63.52Y-27.1
X63.52Y-43.1
X63.52Y-59.1
X63.6Y-1.2
X63.6Y-17.2
X63.6Y-33.2
X63.6Y-49.2
X63.65Y-14.8
X63.65Y-30.8
X63.65Y-46.8
X63.65Y-62.8
X65.15Y-1.0
X65.15Y-17.0
X65.15Y-33.0
X65.15Y-49.0
X65.3Y-14.95
X65.3Y-30.95
X65.3Y-46.95
X65.3Y-62.95
X65.757Y-1.055
X65.757Y-17.055
X65.757Y-33.055
X65.757Y-49.055
X65.918Y-14.726
X65.918Y-30.726
X65.918Y-46.726
X65.918Y-62.726
X66.16Y-9.65
X66.16Y-25.65
X66.16Y-41.65
X66.16Y-57.65
X66.17Y-10.26
X66.17Y-26.26
X66.17Y-42.26
X66.17Y-58.26
X66.25Y-8.65
X66.25Y-24.65
X66.25Y-40.65
X66.25Y-56.65
X66.27Y-7.015
X66.27Y-23.015
X66.27Y-39.015
X66.27Y-55.015
X66.35Y-1.25
X66.35Y-17.25
X66.35Y-33.25
X66.35Y-49.25
X66.38Y-6.125
X66.38Y-22.125
X66.38Y-38.125
X66.38Y-54.125
X66.48Y-14.49
X66.48Y-30.49
X66.48Y-46.49
X66.48Y-62.49
X66.89Y-1.656
X66.89Y-17.656
X66.89Y-33.656
X66.89Y-49.656
X67.0Y-0.75
X67.0Y-15.25
X67.0Y-16.75
X67.0Y-31.25
X67.0Y-32.75
X67.0Y-47.25
X67.0Y-48.75
X67.0Y-63.25
X67.079Y-14.293
X67.079Y-30.293
X67.079Y-46.293
X67.079Y-62.293
X67.44Y-1.919
X67.44Y-17.919
X67.44Y-33.919
X67.44Y-49.919
X67.681Y-14.197
X67.681Y-30.197
X67.681Y-46.197
X67.681Y-62.197
X67.857Y-2.364
X67.857Y-18.364
X67.857Y-34.364
X67.857Y-50.364
X68.05Y-2.95
X68.05Y-18.95
X68.05Y-34.95
X68.05Y-50.95
X68.088Y-13.742
X68.088Y-29.742
X68.088Y-45.742
X68.088Y-61.742
X68.175Y-5.775
X68.175Y-21.775
X68.175Y-37.775
X68.175Y-53.775
X68.2Y-12.75
X68.2Y-28.75
X68.2Y-44.75
X68.2Y-60.75
X68.224Y-12.176
X68.224Y-28.176
X68.224Y-44.176
X68.224Y-60.176
X68.25Y-6.765
X68.25Y-22.765
X68.25Y-38.765
X68.25Y-54.765
X68.293Y-9.8
X68.293Y-25.8
X68.293Y-41.8
X68.293Y-57.8
X68.301Y-9.107
X68.301Y-25.107
X68.301Y-41.107
X68.301Y-57.107
X68.32Y-11.09
X68.32Y-27.09
X68.32Y-43.09
X68.32Y-59.09
X68.486Y-7.29
X68.486Y-23.29
X68.486Y-39.29
X68.486Y-55.29
X68.517Y-11.681
X68.517Y-27.681
X68.517Y-43.681
X68.517Y-59.681
X68.599Y-6.163
X68.599Y-22.163
X68.599Y-38.163
X68.599Y-54.163
X68.7Y-13.35
X68.7Y-29.35
X68.7Y-45.35
X68.7Y-61.35
X69.0Y-14.335
X69.0Y-15.25
X69.0Y-30.335
X69.0Y-31.25
X69.0Y-46.335
X69.0Y-47.25
X69.0Y-62.335
X69.0Y-63.25
X69.2Y-6.935
X69.2Y-22.935
X69.2Y-38.935
X69.2Y-54.935
X69.24Y-6.31
X69.24Y-22.31
X69.24Y-38.31
X69.24Y-54.31
X69.25Y-8.88
X69.25Y-10.82
X69.25Y-11.59
X69.25Y-24.88
X69.25Y-26.82
X69.25Y-27.59
X69.25Y-40.88
X69.25Y-42.82
X69.25Y-43.59
X69.25Y-56.88
X69.25Y-58.82
X69.25Y-59.59
X69.26Y-3.75
X69.26Y-4.33
X69.26Y-19.75
X69.26Y-20.33
X69.26Y-35.75
X69.26Y-36.33
X69.26Y-51.75
X69.26Y-52.33
X69.27Y-1.81
X69.27Y-17.81
X69.27Y-33.81
X69.27Y-49.81
T2
X4.5Y-4.935
X4.5Y-8.035
X4.5Y-11.135
X4.5Y-20.935
X4.5Y-24.035
X4.5Y-27.135
X4.5Y-36.935
X4.5Y-40.035
X4.5Y-43.135
X4.5Y-52.935
X4.5Y-56.035
X4.5Y-59.135
X9.5Y-4.935
X9.5Y-8.035
X9.5Y-11.135
X9.5Y-20.935
X9.5Y-24.035
X9.5Y-27.135
X9.5Y-36.935
X9.5Y-40.035
X9.5Y-43.135
X9.5Y-52.935
X9.5Y-56.035
X9.5Y-59.135
X18.5Y-4.935
X18.5Y-8.035
X18.5Y-11.135
X18.5Y-20.935
X18.5Y-24.035
X18.5Y-27.135
X18.5Y-36.935
X18.5Y-40.035
X18.5Y-43.135
X18.5Y-52.935
X18.5Y-56.035
X18.5Y-59.135
X23.5Y-4.935
X23.5Y-8.035
X23.5Y-11.135
X23.5Y-20.935
X23.5Y-24.035
X23.5Y-27.135
X23.5Y-36.935
X23.5Y-40.035
X23.5Y-43.135
X23.5Y-52.935
X23.5Y-56.035
X23.5Y-59.135
X32.5Y-4.935
X32.5Y-8.035
X32.5Y-11.135
X32.5Y-20.935
X32.5Y-24.035
X32.5Y-27.135
X32.5Y-36.935
X32.5Y-40.035
X32.5Y-43.135
X32.5Y-52.935
X32.5Y-56.035
X32.5Y-59.135
X37.5Y-4.935
X37.5Y-8.035
X37.5Y-11.135
X37.5Y-20.935
X37.5Y-24.035
X37.5Y-27.135
X37.5Y-36.935
X37.5Y-40.035
X37.5Y-43.135
X37.5Y-52.935
X37.5Y-56.035
X37.5Y-59.135
X46.5Y-4.935
X46.5Y-8.035
X46.5Y-11.135
X46.5Y-20.935
X46.5Y-24.035
X46.5Y-27.135
X46.5Y-36.935
X46.5Y-40.035
X46.5Y-43.135
X46.5Y-52.935
X46.5Y-56.035
X46.5Y-59.135
X51.5Y-4.935
X51.5Y-8.035
X51.5Y-11.135
X51.5Y-20.935
X51.5Y-24.035
X51.5Y-27.135
X51.5Y-36.935
X51.5Y-40.035
X51.5Y-43.135
X51.5Y-52.935
X51.5Y-56.035
X51.5Y-59.135
X60.5Y-4.935
X60.5Y-8.035
X60.5Y-11.135
X60.5Y-20.935
X60.5Y-24.035
X60.5Y-27.135
X60.5Y-36.935
X60.5Y-40.035
X60.5Y-43.135
X60.5Y-52.935
X60.5Y-56.035
X60.5Y-59.135
X65.5Y-4.935
X65.5Y-8.035
X65.5Y-11.135
X65.5Y-20.935
X65.5Y-24.035
X65.5Y-27.135
X65.5Y-36.935
X65.5Y-40.035
X65.5Y-43.135
X65.5Y-52.935
X65.5Y-56.035
X65.5Y-59.135
M30
